<svg width="64" height="63" viewBox="0 0 64 63" fill="none" xmlns="http://www.w3.org/2000/svg">
<path d="M28.4079 0.224901C13.658 1.84955 1.79398 13.8719 0.190728 28.4938C-1.41252 43.7654 7.24502 57.4125 20.3917 62.6113C21.3536 62.9363 22.3156 62.2864 22.3156 60.9867V55.7878C22.3156 55.7878 21.033 56.1127 19.4297 56.1127C14.9406 56.1127 13.0167 52.2136 12.6961 49.9391C12.3754 48.6394 11.7341 47.6646 10.7722 46.6898C9.81022 46.3649 9.48957 46.3649 9.48957 46.0399C9.48957 45.3901 10.4515 45.3901 10.7722 45.3901C12.6961 45.3901 14.2993 47.6646 14.9406 48.6394C16.5439 51.2388 18.4678 51.8887 19.4297 51.8887C20.7123 51.8887 21.6743 51.5637 22.3156 51.2388C22.6362 48.9643 23.5981 46.6898 25.522 45.3901C18.1471 43.7654 12.6961 39.5414 12.6961 32.3929C12.6961 28.8187 14.2993 25.2445 16.5439 22.645C16.2232 21.9952 15.9026 20.3705 15.9026 18.096C15.9026 16.7963 15.9026 14.8467 16.8645 12.8971C16.8645 12.8971 21.3536 12.8971 25.8427 17.1212C27.4459 16.4714 29.6905 16.1464 31.935 16.1464C34.1796 16.1464 36.4241 16.4714 38.348 17.1212C42.5165 12.8971 47.3262 12.8971 47.3262 12.8971C47.9675 14.8467 47.9675 16.7963 47.9675 18.096C47.9675 20.6955 47.6469 21.9952 47.3262 22.645C49.5708 25.2445 51.174 28.4938 51.174 32.3929C51.174 39.5414 45.723 43.7654 38.348 45.3901C40.2719 47.0147 41.5545 49.9391 41.5545 52.8635V61.3116C41.5545 62.2864 42.5165 63.2612 43.7991 62.9363C55.6631 58.0623 64 46.3649 64 32.7178C64 13.2221 47.6469 -2.0496 28.4079 0.224901Z" fill="#79A3FC"/>
</svg>
