<svg width="1138" height="654" viewBox="0 0 1138 654" fill="none" xmlns="http://www.w3.org/2000/svg">
<path d="M0 30C0 13.4315 13.4315 0 30 0H1108C1124.57 0 1138 13.4315 1138 30V654H0V30Z" fill="#0E2046"/>
<path d="M0 59.7368H1138" stroke="#79A3FC" stroke-width="3"/>
<path d="M14 1.5H1124C1130.9 1.5 1136.5 7.09644 1136.5 14V640C1136.5 646.904 1130.9 652.5 1124 652.5H14C7.09644 652.5 1.5 646.904 1.5 640V14C1.5 7.09644 7.09644 1.5 14 1.5Z" stroke="#79A3FC" stroke-width="3"/>
<circle cx="82.5" cy="31.5" r="7.5" fill="#FFC107"/>
<circle cx="60.5" cy="31.5" r="7.5" fill="#71C674"/>
<circle cx="38.5" cy="31.5" r="7.5" fill="#F4511E"/>
<path d="M636.612 263.364H647.01V293.534C646.995 296.361 646.321 298.832 644.985 300.949C643.65 303.051 641.804 304.685 639.446 305.849C637.102 307.014 634.389 307.597 631.306 307.597C628.579 307.597 626.1 307.121 623.87 306.169C621.654 305.217 619.886 303.74 618.565 301.737C617.258 299.734 616.612 297.17 616.626 294.045H627.13C627.173 295.168 627.386 296.126 627.77 296.922C628.167 297.703 628.714 298.293 629.41 298.69C630.106 299.088 630.937 299.287 631.903 299.287C632.912 299.287 633.764 299.074 634.46 298.648C635.156 298.207 635.681 297.561 636.037 296.709C636.406 295.857 636.598 294.798 636.612 293.534V263.364ZM668.908 307.618C665.47 307.618 662.516 306.915 660.044 305.509C657.587 304.088 655.69 302.114 654.355 299.585C653.034 297.043 652.374 294.095 652.374 290.743C652.374 287.376 653.034 284.429 654.355 281.901C655.69 279.358 657.587 277.384 660.044 275.977C662.516 274.557 665.47 273.847 668.908 273.847C672.345 273.847 675.293 274.557 677.75 275.977C680.222 277.384 682.118 279.358 683.439 281.901C684.774 284.429 685.442 287.376 685.442 290.743C685.442 294.095 684.774 297.043 683.439 299.585C682.118 302.114 680.222 304.088 677.75 305.509C675.293 306.915 672.345 307.618 668.908 307.618ZM668.972 299.756C670.222 299.756 671.28 299.372 672.146 298.605C673.013 297.838 673.673 296.773 674.128 295.409C674.597 294.045 674.831 292.469 674.831 290.679C674.831 288.861 674.597 287.27 674.128 285.906C673.673 284.543 673.013 283.477 672.146 282.71C671.28 281.943 670.222 281.56 668.972 281.56C667.679 281.56 666.585 281.943 665.69 282.71C664.81 283.477 664.135 284.543 663.666 285.906C663.212 287.27 662.984 288.861 662.984 290.679C662.984 292.469 663.212 294.045 663.666 295.409C664.135 296.773 664.81 297.838 665.69 298.605C666.585 299.372 667.679 299.756 668.972 299.756ZM719.352 284.266L709.785 284.521C709.685 283.839 709.415 283.236 708.975 282.71C708.535 282.17 707.96 281.751 707.249 281.453C706.553 281.141 705.744 280.984 704.82 280.984C703.613 280.984 702.583 281.226 701.731 281.709C700.893 282.192 700.481 282.845 700.495 283.669C700.481 284.308 700.737 284.862 701.262 285.331C701.802 285.8 702.761 286.176 704.138 286.46L710.445 287.653C713.712 288.278 716.141 289.315 717.732 290.764C719.337 292.213 720.147 294.131 720.161 296.517C720.147 298.761 719.479 300.714 718.158 302.376C716.852 304.038 715.062 305.331 712.789 306.254C710.516 307.163 707.917 307.618 704.991 307.618C700.317 307.618 696.631 306.659 693.933 304.741C691.248 302.81 689.714 300.224 689.33 296.986L699.621 296.73C699.849 297.923 700.438 298.832 701.39 299.457C702.342 300.082 703.556 300.395 705.033 300.395C706.369 300.395 707.455 300.146 708.293 299.649C709.131 299.152 709.558 298.491 709.572 297.668C709.558 296.929 709.231 296.339 708.592 295.899C707.952 295.445 706.951 295.089 705.587 294.834L699.877 293.747C696.596 293.151 694.153 292.05 692.548 290.445C690.942 288.825 690.147 286.766 690.161 284.266C690.147 282.078 690.729 280.21 691.908 278.662C693.087 277.099 694.763 275.906 696.937 275.082C699.11 274.259 701.674 273.847 704.629 273.847C709.06 273.847 712.555 274.777 715.112 276.638C717.668 278.484 719.082 281.027 719.352 284.266ZM740.589 307.618C737.166 307.618 734.211 306.943 731.725 305.594C729.254 304.23 727.35 302.291 726.015 299.777C724.694 297.249 724.034 294.244 724.034 290.764C724.034 287.384 724.701 284.429 726.037 281.901C727.372 279.358 729.254 277.384 731.683 275.977C734.112 274.557 736.974 273.847 740.27 273.847C742.599 273.847 744.73 274.209 746.662 274.933C748.593 275.658 750.262 276.73 751.669 278.151C753.075 279.571 754.169 281.325 754.95 283.413C755.731 285.487 756.122 287.866 756.122 290.551V293.151H727.677V287.099H746.427C746.413 285.991 746.15 285.004 745.639 284.138C745.127 283.271 744.424 282.597 743.529 282.114C742.649 281.616 741.633 281.368 740.483 281.368C739.318 281.368 738.274 281.631 737.35 282.156C736.427 282.668 735.696 283.371 735.156 284.266C734.616 285.146 734.332 286.148 734.304 287.27V293.428C734.304 294.763 734.566 295.935 735.092 296.943C735.618 297.937 736.363 298.712 737.329 299.266C738.295 299.82 739.446 300.097 740.781 300.097C741.704 300.097 742.542 299.969 743.295 299.713C744.048 299.457 744.694 299.081 745.234 298.584C745.774 298.087 746.179 297.476 746.449 296.751L756.015 297.028C755.618 299.173 754.744 301.041 753.395 302.632C752.059 304.209 750.305 305.437 748.132 306.318C745.958 307.185 743.444 307.618 740.589 307.618ZM736.498 270.118L740.802 260.509H750.028L743.593 270.118H736.498ZM774.334 307V263.364H784.881V280.878H802.075V263.364H812.601V307H802.075V289.464H784.881V307H774.334ZM834.515 307.618C831.092 307.618 828.137 306.943 825.651 305.594C823.18 304.23 821.276 302.291 819.941 299.777C818.62 297.249 817.96 294.244 817.96 290.764C817.96 287.384 818.627 284.429 819.962 281.901C821.298 279.358 823.18 277.384 825.609 275.977C828.038 274.557 830.9 273.847 834.195 273.847C836.525 273.847 838.656 274.209 840.587 274.933C842.519 275.658 844.188 276.73 845.594 278.151C847.001 279.571 848.094 281.325 848.876 283.413C849.657 285.487 850.048 287.866 850.048 290.551V293.151H821.603V287.099H840.353C840.339 285.991 840.076 285.004 839.565 284.138C839.053 283.271 838.35 282.597 837.455 282.114C836.575 281.616 835.559 281.368 834.408 281.368C833.244 281.368 832.2 281.631 831.276 282.156C830.353 282.668 829.621 283.371 829.082 284.266C828.542 285.146 828.258 286.148 828.229 287.27V293.428C828.229 294.763 828.492 295.935 829.018 296.943C829.543 297.937 830.289 298.712 831.255 299.266C832.221 299.82 833.371 300.097 834.707 300.097C835.63 300.097 836.468 299.969 837.221 299.713C837.974 299.457 838.62 299.081 839.16 298.584C839.7 298.087 840.104 297.476 840.374 296.751L849.941 297.028C849.543 299.173 848.67 301.041 847.32 302.632C845.985 304.209 844.231 305.437 842.058 306.318C839.884 307.185 837.37 307.618 834.515 307.618ZM855.369 307V274.273H865.49V280.239H865.831C866.427 278.08 867.4 276.474 868.75 275.423C870.099 274.358 871.669 273.825 873.458 273.825C873.941 273.825 874.439 273.861 874.95 273.932C875.461 273.989 875.937 274.081 876.377 274.209V283.264C875.88 283.094 875.227 282.959 874.417 282.859C873.622 282.76 872.912 282.71 872.287 282.71C871.051 282.71 869.936 282.987 868.941 283.541C867.961 284.081 867.187 284.841 866.619 285.821C866.065 286.787 865.788 287.923 865.788 289.23V307H855.369ZM880.623 307V263.364H891.042V279.876H891.255C891.681 278.882 892.285 277.923 893.066 277C893.862 276.077 894.87 275.324 896.092 274.741C897.327 274.145 898.805 273.847 900.523 273.847C902.796 273.847 904.92 274.443 906.894 275.636C908.883 276.83 910.488 278.669 911.71 281.155C912.931 283.641 913.542 286.808 913.542 290.658C913.542 294.365 912.952 297.469 911.773 299.969C910.609 302.469 909.032 304.344 907.043 305.594C905.069 306.844 902.874 307.469 900.46 307.469C898.812 307.469 897.384 307.199 896.177 306.659C894.969 306.119 893.954 305.409 893.13 304.528C892.32 303.648 891.695 302.703 891.255 301.695H890.935V307H880.623ZM890.829 290.636C890.829 292.398 891.063 293.932 891.532 295.239C892.015 296.545 892.704 297.561 893.599 298.286C894.508 298.996 895.594 299.351 896.859 299.351C898.137 299.351 899.224 298.996 900.119 298.286C901.013 297.561 901.688 296.545 902.143 295.239C902.612 293.932 902.846 292.398 902.846 290.636C902.846 288.875 902.612 287.348 902.143 286.055C901.688 284.763 901.013 283.761 900.119 283.051C899.238 282.341 898.151 281.986 896.859 281.986C895.58 281.986 894.494 282.334 893.599 283.03C892.704 283.726 892.015 284.72 891.532 286.013C891.063 287.305 890.829 288.847 890.829 290.636ZM934.3 307.618C930.877 307.618 927.922 306.943 925.436 305.594C922.965 304.23 921.061 302.291 919.726 299.777C918.405 297.249 917.745 294.244 917.745 290.764C917.745 287.384 918.412 284.429 919.748 281.901C921.083 279.358 922.965 277.384 925.394 275.977C927.823 274.557 930.685 273.847 933.98 273.847C936.31 273.847 938.441 274.209 940.373 274.933C942.304 275.658 943.973 276.73 945.38 278.151C946.786 279.571 947.88 281.325 948.661 283.413C949.442 285.487 949.833 287.866 949.833 290.551V293.151H921.388V287.099H940.138C940.124 285.991 939.861 285.004 939.35 284.138C938.838 283.271 938.135 282.597 937.24 282.114C936.36 281.616 935.344 281.368 934.194 281.368C933.029 281.368 931.985 281.631 931.061 282.156C930.138 282.668 929.407 283.371 928.867 284.266C928.327 285.146 928.043 286.148 928.015 287.27V293.428C928.015 294.763 928.277 295.935 928.803 296.943C929.328 297.937 930.074 298.712 931.04 299.266C932.006 299.82 933.157 300.097 934.492 300.097C935.415 300.097 936.253 299.969 937.006 299.713C937.759 299.457 938.405 299.081 938.945 298.584C939.485 298.087 939.89 297.476 940.159 296.751L949.726 297.028C949.328 299.173 948.455 301.041 947.105 302.632C945.77 304.209 944.016 305.437 941.843 306.318C939.669 307.185 937.155 307.618 934.3 307.618ZM955.154 307V274.273H965.275V280.239H965.616C966.212 278.08 967.185 276.474 968.535 275.423C969.884 274.358 971.454 273.825 973.244 273.825C973.727 273.825 974.224 273.861 974.735 273.932C975.246 273.989 975.722 274.081 976.163 274.209V283.264C975.665 283.094 975.012 282.959 974.202 282.859C973.407 282.76 972.697 282.71 972.072 282.71C970.836 282.71 969.721 282.987 968.727 283.541C967.746 284.081 966.972 284.841 966.404 285.821C965.85 286.787 965.573 287.923 965.573 289.23V307H955.154ZM1000.4 274.273V281.943H979.758V274.273H1000.4ZM984.083 266.432H994.502V296.709C994.502 297.348 994.602 297.866 994.801 298.264C995.014 298.648 995.319 298.925 995.717 299.095C996.115 299.251 996.591 299.33 997.145 299.33C997.542 299.33 997.961 299.294 998.402 299.223C998.856 299.138 999.197 299.067 999.424 299.01L1001 306.531C1000.5 306.673 999.801 306.851 998.892 307.064C997.997 307.277 996.924 307.412 995.674 307.469C993.231 307.582 991.136 307.298 989.389 306.616C987.656 305.92 986.328 304.841 985.404 303.378C984.495 301.915 984.055 300.075 984.083 297.859V266.432ZM540.047 380V336.364H558.072C561.339 336.364 564.159 336.953 566.531 338.132C568.917 339.297 570.757 340.973 572.05 343.161C573.342 345.334 573.988 347.912 573.988 350.895C573.988 353.92 573.328 356.491 572.007 358.608C570.686 360.71 568.811 362.315 566.382 363.423C563.953 364.517 561.077 365.064 557.753 365.064H546.354V356.754H555.792C557.383 356.754 558.711 356.548 559.777 356.136C560.856 355.71 561.673 355.071 562.227 354.219C562.781 353.352 563.058 352.244 563.058 350.895C563.058 349.545 562.781 348.43 562.227 347.55C561.673 346.655 560.856 345.987 559.777 345.547C558.697 345.092 557.369 344.865 555.792 344.865H550.594V380H540.047ZM564.613 360.057L575.48 380H563.974L553.321 360.057H564.613ZM594.406 380.618C590.968 380.618 588.014 379.915 585.542 378.509C583.085 377.088 581.188 375.114 579.853 372.585C578.532 370.043 577.872 367.095 577.872 363.743C577.872 360.376 578.532 357.429 579.853 354.901C581.188 352.358 583.085 350.384 585.542 348.977C588.014 347.557 590.968 346.847 594.406 346.847C597.843 346.847 600.791 347.557 603.248 348.977C605.72 350.384 607.616 352.358 608.937 354.901C610.272 357.429 610.94 360.376 610.94 363.743C610.94 367.095 610.272 370.043 608.937 372.585C607.616 375.114 605.72 377.088 603.248 378.509C600.791 379.915 597.843 380.618 594.406 380.618ZM594.47 372.756C595.72 372.756 596.778 372.372 597.644 371.605C598.511 370.838 599.171 369.773 599.626 368.409C600.095 367.045 600.329 365.469 600.329 363.679C600.329 361.861 600.095 360.27 599.626 358.906C599.171 357.543 598.511 356.477 597.644 355.71C596.778 354.943 595.72 354.56 594.47 354.56C593.177 354.56 592.083 354.943 591.188 355.71C590.308 356.477 589.633 357.543 589.164 358.906C588.71 360.27 588.482 361.861 588.482 363.679C588.482 365.469 588.71 367.045 589.164 368.409C589.633 369.773 590.308 370.838 591.188 371.605C592.083 372.372 593.177 372.756 594.47 372.756ZM628.23 380.469C625.816 380.469 623.621 379.844 621.646 378.594C619.672 377.344 618.095 375.469 616.916 372.969C615.737 370.469 615.148 367.365 615.148 363.658C615.148 359.808 615.759 356.641 616.98 354.155C618.202 351.669 619.8 349.83 621.774 348.636C623.763 347.443 625.901 346.847 628.188 346.847C629.906 346.847 631.377 347.145 632.598 347.741C633.82 348.324 634.828 349.077 635.624 350C636.419 350.923 637.023 351.882 637.435 352.876H637.648V336.364H648.067V380H637.754V374.695H637.435C636.994 375.703 636.369 376.648 635.56 377.528C634.75 378.409 633.735 379.119 632.513 379.659C631.306 380.199 629.878 380.469 628.23 380.469ZM631.852 372.351C633.117 372.351 634.196 371.996 635.091 371.286C635.986 370.561 636.675 369.545 637.158 368.239C637.641 366.932 637.882 365.398 637.882 363.636C637.882 361.847 637.641 360.305 637.158 359.013C636.689 357.72 636 356.726 635.091 356.03C634.196 355.334 633.117 354.986 631.852 354.986C630.56 354.986 629.466 355.341 628.571 356.051C627.676 356.761 626.994 357.763 626.526 359.055C626.071 360.348 625.844 361.875 625.844 363.636C625.844 365.398 626.078 366.932 626.547 368.239C627.016 369.545 627.691 370.561 628.571 371.286C629.466 371.996 630.56 372.351 631.852 372.351ZM654.656 380V347.273H664.777V353.239H665.118C665.714 351.08 666.687 349.474 668.037 348.423C669.386 347.358 670.956 346.825 672.746 346.825C673.229 346.825 673.726 346.861 674.237 346.932C674.748 346.989 675.224 347.081 675.665 347.209V356.264C675.167 356.094 674.514 355.959 673.704 355.859C672.909 355.76 672.199 355.71 671.574 355.71C670.338 355.71 669.223 355.987 668.229 356.541C667.248 357.081 666.474 357.841 665.906 358.821C665.352 359.787 665.075 360.923 665.075 362.23V380H654.656ZM679.91 380V347.273H690.329V380H679.91ZM685.13 343.459C683.667 343.459 682.41 342.976 681.359 342.01C680.308 341.03 679.782 339.851 679.782 338.473C679.782 337.109 680.308 335.945 681.359 334.979C682.41 333.999 683.667 333.509 685.13 333.509C686.607 333.509 687.865 333.999 688.901 334.979C689.953 335.945 690.478 337.109 690.478 338.473C690.478 339.851 689.953 341.03 688.901 342.01C687.865 342.976 686.607 343.459 685.13 343.459ZM712.216 392.955C709.106 392.955 706.442 392.521 704.226 391.655C702.01 390.788 700.27 389.602 699.006 388.097C697.742 386.591 696.982 384.886 696.726 382.983L706.591 382.429C706.776 383.097 707.117 383.679 707.614 384.176C708.126 384.673 708.786 385.057 709.596 385.327C710.42 385.597 711.385 385.732 712.493 385.732C714.241 385.732 715.682 385.305 716.819 384.453C717.969 383.615 718.545 382.145 718.545 380.043V374.29H718.182C717.77 375.298 717.145 376.2 716.307 376.996C715.469 377.791 714.425 378.416 713.175 378.871C711.939 379.325 710.519 379.553 708.914 379.553C706.528 379.553 704.34 378.999 702.351 377.891C700.377 376.768 698.793 375.036 697.6 372.692C696.421 370.334 695.831 367.301 695.831 363.594C695.831 359.773 696.442 356.626 697.664 354.155C698.885 351.669 700.483 349.83 702.458 348.636C704.447 347.443 706.584 346.847 708.871 346.847C710.59 346.847 712.06 347.145 713.282 347.741C714.518 348.324 715.533 349.077 716.329 350C717.124 350.923 717.728 351.882 718.14 352.876H718.438V347.273H728.814V380.128C728.814 382.898 728.118 385.234 726.726 387.138C725.334 389.041 723.388 390.483 720.888 391.463C718.388 392.457 715.498 392.955 712.216 392.955ZM712.536 371.967C713.8 371.967 714.88 371.634 715.775 370.966C716.67 370.298 717.358 369.339 717.841 368.089C718.324 366.839 718.566 365.341 718.566 363.594C718.566 361.818 718.324 360.291 717.841 359.013C717.373 357.72 716.684 356.726 715.775 356.03C714.88 355.334 713.8 354.986 712.536 354.986C711.243 354.986 710.15 355.341 709.255 356.051C708.36 356.761 707.678 357.763 707.209 359.055C706.755 360.334 706.528 361.847 706.528 363.594C706.528 365.341 706.762 366.839 707.231 368.089C707.699 369.339 708.374 370.298 709.255 370.966C710.15 371.634 711.243 371.967 712.536 371.967ZM756.572 365.874V347.273H766.97V380H757.041V373.906H756.7C755.975 375.909 754.74 377.5 752.992 378.679C751.259 379.844 749.164 380.426 746.707 380.426C744.477 380.426 742.517 379.915 740.826 378.892C739.136 377.869 737.822 376.442 736.884 374.609C735.947 372.763 735.471 370.604 735.457 368.132V347.273H745.876V366.087C745.89 367.862 746.359 369.261 747.282 370.284C748.205 371.307 749.463 371.818 751.053 371.818C752.09 371.818 753.021 371.591 753.845 371.136C754.683 370.668 755.343 369.993 755.826 369.112C756.323 368.217 756.572 367.138 756.572 365.874ZM788.9 380.618C785.476 380.618 782.522 379.943 780.036 378.594C777.564 377.23 775.661 375.291 774.326 372.777C773.005 370.249 772.344 367.244 772.344 363.764C772.344 360.384 773.012 357.429 774.347 354.901C775.682 352.358 777.564 350.384 779.993 348.977C782.422 347.557 785.285 346.847 788.58 346.847C790.91 346.847 793.04 347.209 794.972 347.933C796.904 348.658 798.573 349.73 799.979 351.151C801.385 352.571 802.479 354.325 803.26 356.413C804.042 358.487 804.432 360.866 804.432 363.551V366.151H775.988V360.099H794.738C794.724 358.991 794.461 358.004 793.949 357.138C793.438 356.271 792.735 355.597 791.84 355.114C790.959 354.616 789.944 354.368 788.793 354.368C787.628 354.368 786.584 354.631 785.661 355.156C784.738 355.668 784.006 356.371 783.466 357.266C782.927 358.146 782.643 359.148 782.614 360.27V366.428C782.614 367.763 782.877 368.935 783.403 369.943C783.928 370.937 784.674 371.712 785.64 372.266C786.606 372.82 787.756 373.097 789.091 373.097C790.015 373.097 790.853 372.969 791.606 372.713C792.358 372.457 793.005 372.081 793.545 371.584C794.084 371.087 794.489 370.476 794.759 369.751L804.326 370.028C803.928 372.173 803.055 374.041 801.705 375.632C800.37 377.209 798.616 378.437 796.442 379.318C794.269 380.185 791.755 380.618 788.9 380.618ZM838.326 357.266L828.759 357.521C828.66 356.839 828.39 356.236 827.95 355.71C827.509 355.17 826.934 354.751 826.224 354.453C825.528 354.141 824.718 353.984 823.795 353.984C822.588 353.984 821.558 354.226 820.705 354.709C819.867 355.192 819.455 355.845 819.47 356.669C819.455 357.308 819.711 357.862 820.237 358.331C820.776 358.8 821.735 359.176 823.113 359.46L829.42 360.653C832.687 361.278 835.116 362.315 836.707 363.764C838.312 365.213 839.122 367.131 839.136 369.517C839.122 371.761 838.454 373.714 837.133 375.376C835.826 377.038 834.036 378.331 831.764 379.254C829.491 380.163 826.892 380.618 823.965 380.618C819.292 380.618 815.606 379.659 812.907 377.741C810.222 375.81 808.688 373.224 808.305 369.986L818.596 369.73C818.823 370.923 819.413 371.832 820.365 372.457C821.316 373.082 822.531 373.395 824.008 373.395C825.343 373.395 826.43 373.146 827.268 372.649C828.106 372.152 828.532 371.491 828.546 370.668C828.532 369.929 828.205 369.339 827.566 368.899C826.927 368.445 825.926 368.089 824.562 367.834L818.852 366.747C815.57 366.151 813.127 365.05 811.522 363.445C809.917 361.825 809.122 359.766 809.136 357.266C809.122 355.078 809.704 353.21 810.883 351.662C812.062 350.099 813.738 348.906 815.911 348.082C818.085 347.259 820.649 346.847 823.603 346.847C828.035 346.847 831.529 347.777 834.086 349.638C836.643 351.484 838.056 354.027 838.326 357.266ZM857.156 336.364H870.217L881.297 363.381H881.808L892.888 336.364H905.949V380H895.679V353.196H895.317L884.834 379.723H878.271L867.788 353.047H867.426V380H857.156V336.364ZM927.804 380.618C924.367 380.618 921.412 379.915 918.941 378.509C916.483 377.088 914.587 375.114 913.252 372.585C911.931 370.043 911.27 367.095 911.27 363.743C911.27 360.376 911.931 357.429 913.252 354.901C914.587 352.358 916.483 350.384 918.941 348.977C921.412 347.557 924.367 346.847 927.804 346.847C931.242 346.847 934.189 347.557 936.646 348.977C939.118 350.384 941.014 352.358 942.335 354.901C943.671 357.429 944.338 360.376 944.338 363.743C944.338 367.095 943.671 370.043 942.335 372.585C941.014 375.114 939.118 377.088 936.646 378.509C934.189 379.915 931.242 380.618 927.804 380.618ZM927.868 372.756C929.118 372.756 930.176 372.372 931.043 371.605C931.909 370.838 932.57 369.773 933.024 368.409C933.493 367.045 933.727 365.469 933.727 363.679C933.727 361.861 933.493 360.27 933.024 358.906C932.57 357.543 931.909 356.477 931.043 355.71C930.176 354.943 929.118 354.56 927.868 354.56C926.575 354.56 925.482 354.943 924.587 355.71C923.706 356.477 923.031 357.543 922.563 358.906C922.108 360.27 921.881 361.861 921.881 363.679C921.881 365.469 922.108 367.045 922.563 368.409C923.031 369.773 923.706 370.838 924.587 371.605C925.482 372.372 926.575 372.756 927.868 372.756ZM949.676 380V347.273H959.796V353.239H960.137C960.734 351.08 961.707 349.474 963.056 348.423C964.406 347.358 965.975 346.825 967.765 346.825C968.248 346.825 968.745 346.861 969.257 346.932C969.768 346.989 970.244 347.081 970.684 347.209V356.264C970.187 356.094 969.534 355.959 968.724 355.859C967.928 355.76 967.218 355.71 966.593 355.71C965.357 355.71 964.242 355.987 963.248 356.541C962.268 357.081 961.494 357.841 960.926 358.821C960.372 359.787 960.095 360.923 960.095 362.23V380H949.676ZM988.529 380.618C985.105 380.618 982.151 379.943 979.665 378.594C977.193 377.23 975.29 375.291 973.955 372.777C972.634 370.249 971.973 367.244 971.973 363.764C971.973 360.384 972.641 357.429 973.976 354.901C975.311 352.358 977.193 350.384 979.622 348.977C982.051 347.557 984.914 346.847 988.209 346.847C990.539 346.847 992.669 347.209 994.601 347.933C996.533 348.658 998.202 349.73 999.608 351.151C1001.01 352.571 1002.11 354.325 1002.89 356.413C1003.67 358.487 1004.06 360.866 1004.06 363.551V366.151H975.617V360.099H994.367C994.352 358.991 994.09 358.004 993.578 357.138C993.067 356.271 992.364 355.597 991.469 355.114C990.588 354.616 989.573 354.368 988.422 354.368C987.257 354.368 986.213 354.631 985.29 355.156C984.367 355.668 983.635 356.371 983.095 357.266C982.556 358.146 982.271 359.148 982.243 360.27V366.428C982.243 367.763 982.506 368.935 983.031 369.943C983.557 370.937 984.303 371.712 985.269 372.266C986.235 372.82 987.385 373.097 988.72 373.097C989.644 373.097 990.482 372.969 991.235 372.713C991.987 372.457 992.634 372.081 993.173 371.584C993.713 371.087 994.118 370.476 994.388 369.751L1003.95 370.028C1003.56 372.173 1002.68 374.041 1001.33 375.632C999.999 377.209 998.244 378.437 996.071 379.318C993.898 380.185 991.384 380.618 988.529 380.618ZM1019.8 361.335V380H1009.38V347.273H1019.29V353.281H1019.65C1020.38 351.278 1021.61 349.709 1023.36 348.572C1025.11 347.422 1027.19 346.847 1029.6 346.847C1031.9 346.847 1033.9 347.365 1035.59 348.402C1037.29 349.425 1038.62 350.859 1039.55 352.706C1040.5 354.538 1040.97 356.683 1040.96 359.141V380H1030.54V361.186C1030.55 359.368 1030.09 357.947 1029.16 356.925C1028.23 355.902 1026.95 355.391 1025.3 355.391C1024.21 355.391 1023.24 355.632 1022.4 356.115C1021.58 356.584 1020.94 357.259 1020.48 358.139C1020.04 359.02 1019.82 360.085 1019.8 361.335ZM1062.69 380.618C1059.25 380.618 1056.29 379.915 1053.82 378.509C1051.37 377.088 1049.47 375.114 1048.13 372.585C1046.81 370.043 1046.15 367.095 1046.15 363.743C1046.15 360.376 1046.81 357.429 1048.13 354.901C1049.47 352.358 1051.37 350.384 1053.82 348.977C1056.29 347.557 1059.25 346.847 1062.69 346.847C1066.12 346.847 1069.07 347.557 1071.53 348.977C1074 350.384 1075.9 352.358 1077.22 354.901C1078.55 357.429 1079.22 360.376 1079.22 363.743C1079.22 367.095 1078.55 370.043 1077.22 372.585C1075.9 375.114 1074 377.088 1071.53 378.509C1069.07 379.915 1066.12 380.618 1062.69 380.618ZM1062.75 372.756C1064 372.756 1065.06 372.372 1065.93 371.605C1066.79 370.838 1067.45 369.773 1067.91 368.409C1068.38 367.045 1068.61 365.469 1068.61 363.679C1068.61 361.861 1068.38 360.27 1067.91 358.906C1067.45 357.543 1066.79 356.477 1065.93 355.71C1065.06 354.943 1064 354.56 1062.75 354.56C1061.46 354.56 1060.36 354.943 1059.47 355.71C1058.59 356.477 1057.91 357.543 1057.45 358.906C1056.99 360.27 1056.76 361.861 1056.76 363.679C1056.76 365.469 1056.99 367.045 1057.45 368.409C1057.91 369.773 1058.59 370.838 1059.47 371.605C1060.36 372.372 1061.46 372.756 1062.75 372.756Z" fill="#FBF5EF"/>
<path d="M637.874 478H630.811V456.182H638.098C640.236 456.182 642.072 456.619 643.606 457.492C645.14 458.359 646.315 459.605 647.132 461.232C647.956 462.851 648.368 464.793 648.368 467.059C648.368 469.332 647.952 471.285 647.121 472.918C646.298 474.552 645.104 475.809 643.542 476.69C641.979 477.563 640.09 478 637.874 478ZM634.103 475.124H637.693C639.355 475.124 640.737 474.811 641.837 474.186C642.938 473.554 643.762 472.641 644.309 471.448C644.856 470.248 645.129 468.785 645.129 467.059C645.129 465.347 644.856 463.895 644.309 462.702C643.769 461.509 642.963 460.603 641.891 459.985C640.818 459.367 639.487 459.058 637.896 459.058H634.103V475.124ZM659.258 478.33C657.646 478.33 656.258 477.986 655.093 477.297C653.935 476.601 653.04 475.624 652.408 474.367C651.783 473.103 651.471 471.622 651.471 469.925C651.471 468.249 651.783 466.771 652.408 465.493C653.04 464.214 653.921 463.217 655.05 462.499C656.187 461.782 657.515 461.423 659.035 461.423C659.958 461.423 660.853 461.576 661.719 461.881C662.586 462.187 663.363 462.666 664.052 463.32C664.741 463.973 665.285 464.822 665.682 465.866C666.08 466.903 666.279 468.163 666.279 469.648V470.777H653.271V468.391H663.157C663.157 467.553 662.987 466.81 662.646 466.164C662.305 465.511 661.826 464.996 661.208 464.619C660.597 464.243 659.88 464.055 659.056 464.055C658.161 464.055 657.38 464.275 656.712 464.715C656.052 465.148 655.54 465.717 655.178 466.42C654.823 467.116 654.645 467.872 654.645 468.689V470.553C654.645 471.647 654.837 472.577 655.221 473.344C655.611 474.112 656.155 474.697 656.851 475.102C657.547 475.5 658.36 475.699 659.29 475.699C659.894 475.699 660.444 475.614 660.942 475.443C661.439 475.266 661.868 475.003 662.231 474.655C662.593 474.307 662.87 473.877 663.062 473.366L666.077 473.909C665.835 474.797 665.402 475.575 664.777 476.242C664.159 476.903 663.381 477.418 662.444 477.787C661.513 478.149 660.452 478.33 659.258 478.33ZM682.075 465.631L679.188 466.143C679.067 465.773 678.876 465.422 678.613 465.088C678.357 464.754 678.009 464.481 677.569 464.268C677.129 464.055 676.578 463.948 675.918 463.948C675.016 463.948 674.263 464.151 673.659 464.555C673.055 464.953 672.754 465.468 672.754 466.1C672.754 466.647 672.956 467.087 673.361 467.421C673.766 467.755 674.419 468.028 675.321 468.241L677.92 468.838C679.426 469.186 680.548 469.722 681.287 470.447C682.026 471.171 682.395 472.112 682.395 473.27C682.395 474.25 682.111 475.124 681.543 475.891C680.982 476.651 680.197 477.247 679.188 477.68C678.187 478.114 677.026 478.33 675.705 478.33C673.872 478.33 672.377 477.94 671.219 477.158C670.062 476.37 669.352 475.251 669.089 473.803L672.168 473.334C672.359 474.136 672.754 474.744 673.35 475.156C673.947 475.56 674.724 475.763 675.683 475.763C676.727 475.763 677.562 475.546 678.187 475.113C678.812 474.673 679.124 474.136 679.124 473.504C679.124 472.993 678.933 472.563 678.549 472.215C678.173 471.867 677.594 471.604 676.812 471.427L674.043 470.82C672.516 470.472 671.386 469.918 670.655 469.158C669.93 468.398 669.568 467.435 669.568 466.271C669.568 465.305 669.838 464.46 670.378 463.735C670.918 463.011 671.663 462.446 672.615 462.041C673.567 461.629 674.657 461.423 675.886 461.423C677.654 461.423 679.046 461.807 680.062 462.574C681.077 463.334 681.749 464.353 682.075 465.631ZM692.95 478.33C691.338 478.33 689.949 477.986 688.784 477.297C687.627 476.601 686.732 475.624 686.1 474.367C685.475 473.103 685.162 471.622 685.162 469.925C685.162 468.249 685.475 466.771 686.1 465.493C686.732 464.214 687.612 463.217 688.742 462.499C689.878 461.782 691.206 461.423 692.726 461.423C693.649 461.423 694.544 461.576 695.411 461.881C696.277 462.187 697.055 462.666 697.744 463.32C698.433 463.973 698.976 464.822 699.374 465.866C699.771 466.903 699.97 468.163 699.97 469.648V470.777H686.963V468.391H696.849C696.849 467.553 696.678 466.81 696.338 466.164C695.997 465.511 695.517 464.996 694.899 464.619C694.289 464.243 693.571 464.055 692.747 464.055C691.852 464.055 691.071 464.275 690.404 464.715C689.743 465.148 689.232 465.717 688.869 466.42C688.514 467.116 688.337 467.872 688.337 468.689V470.553C688.337 471.647 688.529 472.577 688.912 473.344C689.303 474.112 689.846 474.697 690.542 475.102C691.238 475.5 692.051 475.699 692.982 475.699C693.585 475.699 694.136 475.614 694.633 475.443C695.13 475.266 695.56 475.003 695.922 474.655C696.284 474.307 696.561 473.877 696.753 473.366L699.768 473.909C699.526 474.797 699.093 475.575 698.468 476.242C697.85 476.903 697.073 477.418 696.135 477.787C695.205 478.149 694.143 478.33 692.95 478.33ZM706.69 468.284V478H703.505V461.636H706.562V464.3H706.765C707.141 463.433 707.73 462.737 708.533 462.212C709.343 461.686 710.362 461.423 711.591 461.423C712.706 461.423 713.682 461.658 714.52 462.126C715.358 462.588 716.008 463.277 716.47 464.193C716.931 465.109 717.162 466.242 717.162 467.592V478H713.977V467.975C713.977 466.789 713.668 465.862 713.05 465.195C712.432 464.52 711.583 464.183 710.504 464.183C709.765 464.183 709.108 464.342 708.533 464.662C707.965 464.982 707.514 465.45 707.18 466.068C706.853 466.679 706.69 467.418 706.69 468.284ZM734.847 461.636L728.913 478H725.504L719.559 461.636H722.979L727.123 474.229H727.294L731.427 461.636H734.847ZM744.177 478.33C742.643 478.33 741.304 477.979 740.16 477.276C739.017 476.572 738.129 475.589 737.497 474.325C736.865 473.06 736.549 471.583 736.549 469.893C736.549 468.195 736.865 466.711 737.497 465.44C738.129 464.168 739.017 463.181 740.16 462.478C741.304 461.775 742.643 461.423 744.177 461.423C745.711 461.423 747.05 461.775 748.193 462.478C749.336 463.181 750.224 464.168 750.856 465.44C751.488 466.711 751.805 468.195 751.805 469.893C751.805 471.583 751.488 473.06 750.856 474.325C750.224 475.589 749.336 476.572 748.193 477.276C747.05 477.979 745.711 478.33 744.177 478.33ZM744.187 475.656C745.182 475.656 746.006 475.393 746.659 474.868C747.312 474.342 747.795 473.643 748.108 472.769C748.427 471.896 748.587 470.933 748.587 469.882C748.587 468.838 748.427 467.879 748.108 467.006C747.795 466.125 747.312 465.418 746.659 464.886C746.006 464.353 745.182 464.087 744.187 464.087C743.186 464.087 742.355 464.353 741.694 464.886C741.041 465.418 740.555 466.125 740.235 467.006C739.922 467.879 739.766 468.838 739.766 469.882C739.766 470.933 739.922 471.896 740.235 472.769C740.555 473.643 741.041 474.342 741.694 474.868C742.355 475.393 743.186 475.656 744.187 475.656ZM758.545 456.182V478H755.36V456.182H758.545ZM776.829 461.636L770.895 478H767.486L761.542 461.636H764.961L769.106 474.229H769.276L773.41 461.636H776.829ZM786.319 478.33C784.707 478.33 783.318 477.986 782.153 477.297C780.996 476.601 780.101 475.624 779.469 474.367C778.844 473.103 778.531 471.622 778.531 469.925C778.531 468.249 778.844 466.771 779.469 465.493C780.101 464.214 780.982 463.217 782.111 462.499C783.247 461.782 784.575 461.423 786.095 461.423C787.018 461.423 787.913 461.576 788.78 461.881C789.646 462.187 790.424 462.666 791.113 463.32C791.802 463.973 792.345 464.822 792.743 465.866C793.141 466.903 793.339 468.163 793.339 469.648V470.777H780.332V468.391H790.218C790.218 467.553 790.048 466.81 789.707 466.164C789.366 465.511 788.886 464.996 788.268 464.619C787.658 464.243 786.94 464.055 786.116 464.055C785.222 464.055 784.44 464.275 783.773 464.715C783.112 465.148 782.601 465.717 782.239 466.42C781.884 467.116 781.706 467.872 781.706 468.689V470.553C781.706 471.647 781.898 472.577 782.281 473.344C782.672 474.112 783.215 474.697 783.911 475.102C784.607 475.5 785.42 475.699 786.351 475.699C786.955 475.699 787.505 475.614 788.002 475.443C788.499 475.266 788.929 475.003 789.291 474.655C789.653 474.307 789.93 473.877 790.122 473.366L793.137 473.909C792.896 474.797 792.462 475.575 791.837 476.242C791.219 476.903 790.442 477.418 789.504 477.787C788.574 478.149 787.512 478.33 786.319 478.33ZM802.999 478.32C801.678 478.32 800.499 477.982 799.463 477.308C798.433 476.626 797.623 475.656 797.034 474.399C796.451 473.135 796.16 471.619 796.16 469.85C796.16 468.082 796.455 466.569 797.044 465.312C797.641 464.055 798.458 463.092 799.494 462.425C800.531 461.757 801.707 461.423 803.021 461.423C804.036 461.423 804.853 461.594 805.471 461.935C806.096 462.268 806.579 462.659 806.92 463.107C807.268 463.554 807.538 463.948 807.73 464.289H807.921V456.182H811.107V478H807.996V475.454H807.73C807.538 475.802 807.261 476.2 806.899 476.647C806.544 477.094 806.053 477.485 805.428 477.819C804.803 478.153 803.994 478.32 802.999 478.32ZM803.703 475.603C804.619 475.603 805.393 475.362 806.025 474.879C806.664 474.388 807.147 473.71 807.474 472.844C807.808 471.977 807.975 470.969 807.975 469.818C807.975 468.682 807.811 467.687 807.485 466.835C807.158 465.983 806.678 465.319 806.046 464.843C805.414 464.367 804.633 464.129 803.703 464.129C802.744 464.129 801.945 464.378 801.306 464.875C800.666 465.372 800.183 466.05 799.857 466.91C799.537 467.769 799.377 468.739 799.377 469.818C799.377 470.912 799.541 471.896 799.867 472.769C800.194 473.643 800.677 474.335 801.316 474.847C801.963 475.351 802.758 475.603 803.703 475.603ZM822.546 478.33C821.012 478.33 819.673 477.979 818.529 477.276C817.386 476.572 816.498 475.589 815.866 474.325C815.234 473.06 814.918 471.583 814.918 469.893C814.918 468.195 815.234 466.711 815.866 465.44C816.498 464.168 817.386 463.181 818.529 462.478C819.673 461.775 821.012 461.423 822.546 461.423C824.08 461.423 825.419 461.775 826.562 462.478C827.706 463.181 828.593 464.168 829.225 465.44C829.858 466.711 830.174 468.195 830.174 469.893C830.174 471.583 829.858 473.06 829.225 474.325C828.593 475.589 827.706 476.572 826.562 477.276C825.419 477.979 824.08 478.33 822.546 478.33ZM822.556 475.656C823.551 475.656 824.375 475.393 825.028 474.868C825.681 474.342 826.164 473.643 826.477 472.769C826.797 471.896 826.956 470.933 826.956 469.882C826.956 468.838 826.797 467.879 826.477 467.006C826.164 466.125 825.681 465.418 825.028 464.886C824.375 464.353 823.551 464.087 822.556 464.087C821.555 464.087 820.724 464.353 820.064 464.886C819.41 465.418 818.924 466.125 818.604 467.006C818.292 467.879 818.135 468.838 818.135 469.882C818.135 470.933 818.292 471.896 818.604 472.769C818.924 473.643 819.41 474.342 820.064 474.868C820.724 475.393 821.555 475.656 822.556 475.656ZM833.729 478V461.636H836.808V464.236H836.979C837.277 463.355 837.802 462.663 838.555 462.158C839.315 461.647 840.175 461.391 841.133 461.391C841.332 461.391 841.567 461.398 841.836 461.413C842.113 461.427 842.33 461.445 842.486 461.466V464.513C842.358 464.477 842.131 464.438 841.805 464.396C841.478 464.346 841.151 464.321 840.824 464.321C840.072 464.321 839.4 464.481 838.811 464.8C838.229 465.113 837.767 465.55 837.426 466.111C837.085 466.665 836.915 467.297 836.915 468.007V478H833.729ZM853.438 478V456.182H866.968V459.016H856.73V465.663H865.998V468.487H856.73V478H853.438ZM880.101 471.214V461.636H883.297V478H880.165V475.166H879.994C879.618 476.04 879.014 476.768 878.183 477.35C877.359 477.925 876.333 478.213 875.104 478.213C874.053 478.213 873.123 477.982 872.313 477.521C871.511 477.052 870.879 476.359 870.417 475.443C869.962 474.527 869.735 473.394 869.735 472.045V461.636H872.92V471.661C872.92 472.776 873.229 473.664 873.847 474.325C874.465 474.985 875.268 475.315 876.255 475.315C876.852 475.315 877.445 475.166 878.034 474.868C878.631 474.57 879.124 474.119 879.515 473.515C879.913 472.911 880.108 472.144 880.101 471.214ZM890.762 456.182V478H887.577V456.182H890.762ZM898.233 456.182V478H895.048V456.182H898.233ZM922.613 461.913C922.5 460.905 922.031 460.124 921.207 459.57C920.383 459.009 919.346 458.728 918.096 458.728C917.201 458.728 916.427 458.87 915.774 459.154C915.12 459.431 914.613 459.815 914.25 460.305C913.895 460.788 913.718 461.338 913.718 461.956C913.718 462.474 913.838 462.922 914.08 463.298C914.328 463.675 914.652 463.991 915.049 464.246C915.454 464.495 915.887 464.705 916.349 464.875C916.811 465.038 917.255 465.173 917.681 465.28L919.811 465.834C920.507 466.004 921.221 466.235 921.953 466.526C922.684 466.817 923.363 467.201 923.988 467.677C924.613 468.153 925.117 468.742 925.5 469.445C925.891 470.148 926.086 470.99 926.086 471.97C926.086 473.206 925.767 474.303 925.127 475.262C924.495 476.221 923.576 476.977 922.368 477.531C921.168 478.085 919.716 478.362 918.011 478.362C916.377 478.362 914.964 478.103 913.771 477.585C912.578 477.066 911.644 476.331 910.969 475.379C910.294 474.42 909.922 473.284 909.85 471.97H913.153C913.217 472.759 913.473 473.415 913.92 473.941C914.375 474.46 914.953 474.847 915.657 475.102C916.367 475.351 917.145 475.475 917.99 475.475C918.92 475.475 919.748 475.33 920.472 475.038C921.203 474.74 921.779 474.328 922.198 473.803C922.617 473.27 922.826 472.648 922.826 471.938C922.826 471.292 922.642 470.763 922.272 470.351C921.91 469.939 921.417 469.598 920.792 469.328C920.174 469.058 919.474 468.82 918.693 468.614L916.115 467.911C914.368 467.435 912.983 466.736 911.96 465.812C910.944 464.889 910.436 463.668 910.436 462.148C910.436 460.891 910.777 459.793 911.459 458.856C912.141 457.918 913.064 457.19 914.229 456.672C915.394 456.146 916.708 455.884 918.171 455.884C919.648 455.884 920.951 456.143 922.081 456.661C923.217 457.18 924.112 457.893 924.765 458.803C925.419 459.705 925.76 460.741 925.788 461.913H922.613ZM937.403 461.636V464.193H928.465V461.636H937.403ZM930.862 457.716H934.047V473.195C934.047 473.813 934.139 474.278 934.324 474.591C934.509 474.896 934.747 475.106 935.038 475.219C935.336 475.326 935.659 475.379 936.007 475.379C936.263 475.379 936.487 475.362 936.678 475.326C936.87 475.29 937.019 475.262 937.126 475.241L937.701 477.872C937.517 477.943 937.254 478.014 936.913 478.085C936.572 478.163 936.146 478.206 935.634 478.213C934.796 478.227 934.015 478.078 933.291 477.766C932.566 477.453 931.98 476.97 931.533 476.317C931.085 475.663 930.862 474.843 930.862 473.856V457.716ZM945.689 478.362C944.652 478.362 943.714 478.17 942.876 477.787C942.038 477.396 941.374 476.832 940.884 476.093C940.401 475.354 940.159 474.449 940.159 473.376C940.159 472.453 940.337 471.693 940.692 471.097C941.047 470.5 941.527 470.028 942.13 469.68C942.734 469.332 943.409 469.069 944.154 468.891C944.9 468.714 945.66 468.579 946.434 468.487C947.414 468.373 948.21 468.281 948.821 468.21C949.431 468.131 949.875 468.007 950.152 467.837C950.429 467.666 950.568 467.389 950.568 467.006V466.931C950.568 466.001 950.305 465.28 949.779 464.768C949.261 464.257 948.487 464.001 947.457 464.001C946.385 464.001 945.539 464.239 944.922 464.715C944.311 465.184 943.888 465.706 943.654 466.281L940.66 465.599C941.015 464.605 941.534 463.803 942.216 463.192C942.904 462.574 943.696 462.126 944.591 461.849C945.486 461.565 946.427 461.423 947.414 461.423C948.068 461.423 948.76 461.501 949.492 461.658C950.23 461.807 950.919 462.084 951.559 462.489C952.205 462.893 952.734 463.472 953.146 464.225C953.558 464.971 953.764 465.94 953.764 467.134V478H950.653V475.763H950.525C950.319 476.175 950.01 476.58 949.598 476.977C949.186 477.375 948.657 477.705 948.011 477.968C947.365 478.231 946.591 478.362 945.689 478.362ZM946.381 475.805C947.262 475.805 948.015 475.631 948.64 475.283C949.272 474.935 949.751 474.481 950.078 473.92C950.412 473.352 950.578 472.744 950.578 472.098V469.989C950.465 470.102 950.245 470.209 949.918 470.308C949.598 470.401 949.233 470.482 948.821 470.553C948.409 470.617 948.007 470.678 947.617 470.734C947.226 470.784 946.9 470.827 946.637 470.862C946.019 470.94 945.454 471.072 944.943 471.256C944.439 471.441 944.034 471.707 943.728 472.055C943.43 472.396 943.281 472.851 943.281 473.419C943.281 474.207 943.572 474.804 944.154 475.209C944.737 475.607 945.479 475.805 946.381 475.805ZM964.899 478.33C963.316 478.33 961.952 477.972 960.808 477.254C959.672 476.53 958.798 475.532 958.188 474.261C957.577 472.989 957.271 471.533 957.271 469.893C957.271 468.231 957.584 466.764 958.209 465.493C958.834 464.214 959.715 463.217 960.851 462.499C961.987 461.782 963.326 461.423 964.867 461.423C966.11 461.423 967.218 461.654 968.191 462.116C969.164 462.57 969.949 463.21 970.546 464.033C971.149 464.857 971.508 465.82 971.622 466.92H968.521C968.351 466.153 967.96 465.493 967.35 464.939C966.746 464.385 965.936 464.108 964.921 464.108C964.033 464.108 963.255 464.342 962.588 464.811C961.927 465.273 961.412 465.933 961.043 466.793C960.673 467.645 960.489 468.653 960.489 469.818C960.489 471.011 960.67 472.041 961.032 472.908C961.394 473.774 961.906 474.445 962.566 474.921C963.234 475.397 964.019 475.635 964.921 475.635C965.524 475.635 966.071 475.525 966.561 475.305C967.058 475.077 967.474 474.754 967.808 474.335C968.149 473.916 968.387 473.412 968.521 472.822H971.622C971.508 473.881 971.164 474.825 970.588 475.656C970.013 476.487 969.242 477.141 968.276 477.616C967.318 478.092 966.192 478.33 964.899 478.33ZM977.958 472.45L977.936 468.561H978.49L985.01 461.636H988.824L981.388 469.52H980.887L977.958 472.45ZM975.028 478V456.182H978.213V478H975.028ZM985.362 478L979.502 470.223L981.697 467.996L989.272 478H985.362Z" fill="#C2C2C2"/>
<path d="M147.933 172C147.933 199.256 125.086 221.351 96.9041 221.351C68.7218 221.351 45.8755 199.256 45.8755 172C45.8755 144.744 68.7218 122.649 96.9041 122.649C125.086 122.649 147.933 144.744 147.933 172Z" fill="url(#paint0_linear_240_67)"/>
<path d="M154.808 172C154.808 202.928 128.883 228 96.904 228C64.9245 228 39 202.928 39 172C39 141.072 64.9245 116 96.904 116C128.883 116 154.808 141.072 154.808 172ZM41.8588 172C41.8588 201.401 66.5034 225.235 96.904 225.235C127.305 225.235 151.949 201.401 151.949 172C151.949 142.599 127.305 118.765 96.904 118.765C66.5034 118.765 41.8588 142.599 41.8588 172Z" fill="url(#paint1_linear_240_67)"/>
<circle cx="300.022" cy="411.81" r="164.979" fill="url(#paint2_linear_240_67)"/>
<path fill-rule="evenodd" clip-rule="evenodd" d="M194.493 538.628C197.629 536.137 200.244 532.783 201.973 528.584C202.936 526.243 204.252 524.063 205.875 522.119L211.062 515.905C224.214 500.148 227.948 478.567 220.855 459.307L219.806 456.459C214.27 441.43 202.027 429.852 186.711 425.164L182.78 423.96C177.772 422.427 173.189 419.752 169.392 416.144L168.702 415.489C159.463 406.711 146.389 404.34 135.078 408.369C135.055 409.513 135.043 410.66 135.043 411.81C135.043 462.788 158.164 508.366 194.493 538.628ZM195.209 284.398C195.295 300.911 204.95 316.272 220.499 323.271C233.669 329.2 242.972 341.359 245.249 355.622L246.619 364.2C247.625 370.501 249.666 376.593 252.66 382.228L263.608 402.836C279.087 431.971 319.996 434.19 338.535 406.901C340.272 404.344 341.733 401.611 342.894 398.748L348.7 384.433C352.931 374 363.066 367.174 374.324 367.174C383.162 367.174 391.468 362.949 396.673 355.806L406.982 341.656C409.34 338.42 411.258 334.885 412.684 331.144L418.042 317.097C419.759 312.594 423.361 309.104 427.854 307.51C397.601 270.475 351.572 246.831 300.022 246.831C260.219 246.831 223.708 260.927 195.209 284.398ZM457.419 362.226C455.647 363.15 453.997 364.486 452.585 366.273C452.11 366.873 451.683 367.508 451.306 368.174L431.557 403.1C424.878 414.912 423.436 428.977 427.58 441.898C432.603 457.562 429.37 474.703 418.986 487.46L391.671 521.021C389.548 523.628 388.39 526.887 388.39 530.249C388.39 537.065 392.85 542.318 398.522 544.169C438.87 514.093 465 466.003 465 411.81C465 394.533 462.344 377.876 457.419 362.226Z" fill="url(#paint3_linear_240_67)"/>
<path fill-rule="evenodd" clip-rule="evenodd" d="M354.276 567.66C337.285 573.574 319.029 576.788 300.022 576.788C280.315 576.788 261.415 573.333 243.894 566.995C243.429 565.021 243.29 562.936 243.532 560.811C244.289 554.138 248.687 548.437 254.949 546.009L257.327 545.087C264.123 542.452 271.778 543.309 277.824 547.38L282.415 550.472C287.842 554.126 294.236 556.079 300.779 556.079H336.937C344.756 556.079 351.457 560.861 354.276 567.66Z" fill="url(#paint4_linear_240_67)"/>
<path d="M467.45 601.111C466.181 598.973 465.5 593 465.5 593C465.5 593 464.819 598.973 463.55 601.111C462.281 603.249 459 604.051 459 604.051C459 604.051 462.281 604.751 463.55 606.889C464.819 609.027 465.5 615 465.5 615C465.5 615 466.181 609.027 467.45 606.889C468.719 604.751 472 604.051 472 604.051C472 604.051 468.719 603.249 467.45 601.111Z" fill="white"/>
<path d="M197.45 141.111C196.181 138.973 195.5 133 195.5 133C195.5 133 194.819 138.973 193.55 141.111C192.281 143.249 189 144.051 189 144.051C189 144.051 192.281 144.751 193.55 146.889C194.819 149.027 195.5 155 195.5 155C195.5 155 196.181 149.027 197.45 146.889C198.719 144.751 202 144.051 202 144.051C202 144.051 198.719 143.249 197.45 141.111Z" fill="white"/>
<path d="M61.45 517.111C60.1808 514.973 59.5 509 59.5 509C59.5 509 58.8192 514.973 57.55 517.111C56.2808 519.249 53 520.051 53 520.051C53 520.051 56.2808 520.751 57.55 522.889C58.8192 525.027 59.5 531 59.5 531C59.5 531 60.1808 525.027 61.45 522.889C62.7192 520.751 66 520.051 66 520.051C66 520.051 62.7192 519.249 61.45 517.111Z" fill="white"/>
<path d="M408.45 102.111C407.181 99.9726 406.5 94 406.5 94C406.5 94 405.819 99.9726 404.55 102.111C403.281 104.249 400 105.051 400 105.051C400 105.051 403.281 105.751 404.55 107.889C405.819 110.027 406.5 116 406.5 116C406.5 116 407.181 110.027 408.45 107.889C409.719 105.751 413 105.051 413 105.051C413 105.051 409.719 104.249 408.45 102.111Z" fill="white"/>
<path d="M1077.45 437.111C1076.18 434.973 1075.5 429 1075.5 429C1075.5 429 1074.82 434.973 1073.55 437.111C1072.28 439.249 1069 440.051 1069 440.051C1069 440.051 1072.28 440.751 1073.55 442.889C1074.82 445.027 1075.5 451 1075.5 451C1075.5 451 1076.18 445.027 1077.45 442.889C1078.72 440.751 1082 440.051 1082 440.051C1082 440.051 1078.72 439.249 1077.45 437.111Z" fill="white"/>
<path d="M1031.55 177.889C1032.82 180.027 1033.5 186 1033.5 186C1033.5 186 1034.18 180.027 1035.45 177.889C1036.72 175.751 1040 174.949 1040 174.949C1040 174.949 1036.72 174.249 1035.45 172.111C1034.18 169.973 1033.5 164 1033.5 164C1033.5 164 1032.82 169.973 1031.55 172.111C1030.28 174.249 1027 174.949 1027 174.949C1027 174.949 1030.28 175.751 1031.55 177.889Z" fill="white"/>
<path d="M584.6 535.115C582.257 531.131 581 520 581 520C581 520 579.743 531.131 577.4 535.115C575.057 539.1 569 540.594 569 540.594C569 540.594 575.057 541.9 577.4 545.885C579.743 549.869 581 561 581 561C581 561 582.257 549.869 584.6 545.885C586.943 541.9 593 540.594 593 540.594C593 540.594 586.943 539.1 584.6 535.115Z" fill="white"/>
<path d="M99.45 619.111C98.1808 616.973 97.5 611 97.5 611C97.5 611 96.8192 616.973 95.55 619.111C94.2808 621.249 91 622.051 91 622.051C91 622.051 94.2808 622.751 95.55 624.889C96.8192 627.027 97.5 633 97.5 633C97.5 633 98.1808 627.027 99.45 624.889C100.719 622.751 104 622.051 104 622.051C104 622.051 100.719 621.249 99.45 619.111Z" fill="white"/>
<path d="M921.45 186.111C920.181 183.973 919.5 178 919.5 178C919.5 178 918.819 183.973 917.55 186.111C916.281 188.249 913 189.051 913 189.051C913 189.051 916.281 189.751 917.55 191.889C918.819 194.027 919.5 200 919.5 200C919.5 200 920.181 194.027 921.45 191.889C922.719 189.751 926 189.051 926 189.051C926 189.051 922.719 188.249 921.45 186.111Z" fill="white"/>
<path d="M496.65 485.641C494.6 482.045 493.5 472 493.5 472C493.5 472 492.4 482.045 490.35 485.641C488.3 489.236 483 490.585 483 490.585C483 490.585 488.3 491.764 490.35 495.359C492.4 498.955 493.5 509 493.5 509C493.5 509 494.6 498.955 496.65 495.359C498.7 491.764 504 490.585 504 490.585C504 490.585 498.7 489.236 496.65 485.641Z" fill="white"/>
<path d="M299.65 213.641C297.6 210.045 296.5 200 296.5 200C296.5 200 295.4 210.045 293.35 213.641C291.3 217.236 286 218.585 286 218.585C286 218.585 291.3 219.764 293.35 223.359C295.4 226.955 296.5 237 296.5 237C296.5 237 297.6 226.955 299.65 223.359C301.7 219.764 307 218.585 307 218.585C307 218.585 301.7 217.236 299.65 213.641Z" fill="white"/>
<path d="M34.65 616.641C32.5997 613.045 31.5 603 31.5 603C31.5 603 30.4003 613.045 28.35 616.641C26.2997 620.236 21 621.585 21 621.585C21 621.585 26.2997 622.764 28.35 626.359C30.4003 629.955 31.5 640 31.5 640C31.5 640 32.5997 629.955 34.65 626.359C36.7003 622.764 42 621.585 42 621.585C42 621.585 36.7003 620.236 34.65 616.641Z" fill="white"/>
<path d="M1074.65 569.641C1072.6 566.045 1071.5 556 1071.5 556C1071.5 556 1070.4 566.045 1068.35 569.641C1066.3 573.236 1061 574.585 1061 574.585C1061 574.585 1066.3 575.764 1068.35 579.359C1070.4 582.955 1071.5 593 1071.5 593C1071.5 593 1072.6 582.955 1074.65 579.359C1076.7 575.764 1082 574.585 1082 574.585C1082 574.585 1076.7 573.236 1074.65 569.641Z" fill="white"/>
<path d="M691.15 116.276C688.123 110.932 686.5 96 686.5 96C686.5 96 684.877 110.932 681.85 116.276C678.823 121.621 671 123.627 671 123.627C671 123.627 678.823 125.379 681.85 130.724C684.877 136.068 686.5 151 686.5 151C686.5 151 688.123 136.068 691.15 130.724C694.177 125.379 702 123.627 702 123.627C702 123.627 694.177 121.621 691.15 116.276Z" fill="white"/>
<path d="M1016.85 488.802C1014.02 483.846 1012.5 470 1012.5 470C1012.5 470 1010.98 483.846 1008.15 488.802C1005.32 493.758 998 495.618 998 495.618C998 495.618 1005.32 497.242 1008.15 502.198C1010.98 507.154 1012.5 521 1012.5 521C1012.5 521 1014.02 507.154 1016.85 502.198C1019.68 497.242 1027 495.618 1027 495.618C1027 495.618 1019.68 493.758 1016.85 488.802Z" fill="white"/>
<path d="M1092.15 126.198C1094.98 131.154 1096.5 145 1096.5 145C1096.5 145 1098.02 131.154 1100.85 126.198C1103.68 121.242 1111 119.382 1111 119.382C1111 119.382 1103.68 117.758 1100.85 112.802C1098.02 107.846 1096.5 94 1096.5 94C1096.5 94 1094.98 107.846 1092.15 112.802C1089.32 117.758 1082 119.382 1082 119.382C1082 119.382 1089.32 121.242 1092.15 126.198Z" fill="white"/>
<path d="M572.65 288.641C570.6 285.045 569.5 275 569.5 275C569.5 275 568.4 285.045 566.35 288.641C564.3 292.236 559 293.585 559 293.585C559 293.585 564.3 294.764 566.35 298.359C568.4 301.955 569.5 312 569.5 312C569.5 312 570.6 301.955 572.65 298.359C574.7 294.764 580 293.585 580 293.585C580 293.585 574.7 292.236 572.65 288.641Z" fill="white"/>
<defs>
<linearGradient id="paint0_linear_240_67" x1="52.8583" y1="110.494" x2="135.88" y2="235.165" gradientUnits="userSpaceOnUse">
<stop offset="0.206" stop-color="#FFCD62"/>
<stop offset="0.621886" stop-color="#FFAE00"/>
<stop offset="1" stop-color="#996900"/>
</linearGradient>
<linearGradient id="paint1_linear_240_67" x1="52.8583" y1="110.494" x2="144.908" y2="233.886" gradientUnits="userSpaceOnUse">
<stop offset="0.126" stop-color="#FFCD62"/>
<stop offset="0.840809" stop-color="#FFAE00"/>
<stop offset="1" stop-color="#996900"/>
</linearGradient>
<linearGradient id="paint2_linear_240_67" x1="166.499" y1="227.694" x2="375.692" y2="644.979" gradientUnits="userSpaceOnUse">
<stop stop-color="#79B8FF"/>
<stop offset="0.376" stop-color="#0077FF"/>
<stop offset="1" stop-color="#004799"/>
</linearGradient>
<linearGradient id="paint3_linear_240_67" x1="143.182" y1="205.476" x2="373.478" y2="601.525" gradientUnits="userSpaceOnUse">
<stop stop-color="#88FDBF"/>
<stop offset="0.306737" stop-color="#27EB83"/>
<stop offset="1" stop-color="#16854A"/>
</linearGradient>
<linearGradient id="paint4_linear_240_67" x1="243.269" y1="424.127" x2="279.921" y2="686.096" gradientUnits="userSpaceOnUse">
<stop stop-color="#F8F8F8"/>
<stop offset="1" stop-color="#AAAAAA"/>
</linearGradient>
</defs>
</svg>
