<svg width="800" height="65" viewBox="0 0 800 65" fill="none" xmlns="http://www.w3.org/2000/svg">
<rect width="800" height="65" rx="14" fill="#051F39"/>
<path d="M80.6435 41V22.0909H84.6413V37.7038H92.7479V41H80.6435ZM99.3656 41.2678C98.4608 41.2678 97.6544 41.1108 96.9466 40.7969C96.2387 40.4768 95.6786 40.0059 95.2662 39.3842C94.8599 38.7564 94.6568 37.9747 94.6568 37.0391C94.6568 36.2512 94.8014 35.5895 95.0907 35.054C95.38 34.5185 95.774 34.0876 96.2725 33.7614C96.7711 33.4351 97.3374 33.1889 97.9714 33.0227C98.6116 32.8565 99.2825 32.7396 99.9842 32.6719C100.809 32.5857 101.474 32.5057 101.979 32.4318C102.483 32.3518 102.849 32.2348 103.077 32.081C103.305 31.9271 103.419 31.6993 103.419 31.3977V31.3423C103.419 30.7576 103.234 30.3052 102.865 29.9851C102.502 29.665 101.985 29.505 101.314 29.505C100.606 29.505 100.043 29.6619 99.6241 29.9759C99.2056 30.2836 98.9286 30.6714 98.7931 31.1392L95.1554 30.8438C95.34 29.982 95.7032 29.2372 96.2449 28.6094C96.7865 27.9754 97.4851 27.4891 98.3407 27.1506C99.2025 26.8059 100.2 26.6335 101.332 26.6335C102.12 26.6335 102.874 26.7259 103.594 26.9105C104.321 27.0952 104.964 27.3814 105.524 27.7692C106.09 28.157 106.537 28.6555 106.863 29.2649C107.189 29.8681 107.352 30.5914 107.352 31.4347V41H103.622V39.0334H103.511C103.283 39.4766 102.979 39.8674 102.597 40.206C102.215 40.5384 101.757 40.8 101.221 40.9908C100.686 41.1754 100.067 41.2678 99.3656 41.2678ZM100.492 38.5533C101.071 38.5533 101.581 38.4394 102.025 38.2116C102.468 37.9777 102.816 37.6638 103.068 37.2699C103.32 36.8759 103.447 36.4297 103.447 35.9311V34.4261C103.323 34.5062 103.154 34.58 102.939 34.6477C102.729 34.7093 102.492 34.7678 102.228 34.8232C101.963 34.8724 101.698 34.9186 101.434 34.9616C101.169 34.9986 100.929 35.0324 100.714 35.0632C100.252 35.1309 99.8488 35.2386 99.5041 35.3864C99.1594 35.5341 98.8916 35.7341 98.7008 35.9865C98.51 36.2327 98.4146 36.5405 98.4146 36.9098C98.4146 37.4453 98.6085 37.8546 98.9963 38.1378C99.3902 38.4148 99.8888 38.5533 100.492 38.5533ZM114.337 32.8011V41H110.404V26.8182H114.152V29.3203H114.318C114.632 28.4955 115.159 27.843 115.897 27.3629C116.636 26.8767 117.531 26.6335 118.584 26.6335C119.569 26.6335 120.427 26.849 121.16 27.2798C121.892 27.7107 122.462 28.3262 122.868 29.1264C123.274 29.9205 123.477 30.8684 123.477 31.9702V41H119.544V32.6719C119.55 31.804 119.329 31.1269 118.879 30.6406C118.43 30.1482 117.811 29.902 117.024 29.902C116.494 29.902 116.026 30.0159 115.62 30.2436C115.22 30.4714 114.906 30.8037 114.678 31.2408C114.457 31.6716 114.343 32.1918 114.337 32.8011ZM132.967 46.6136C131.692 46.6136 130.6 46.4382 129.689 46.0874C128.784 45.7427 128.064 45.2718 127.528 44.6747C126.993 44.0777 126.645 43.4067 126.485 42.6619L130.123 42.1726C130.234 42.4557 130.409 42.7204 130.649 42.9666C130.889 43.2128 131.206 43.4098 131.6 43.5575C132 43.7114 132.487 43.7884 133.059 43.7884C133.915 43.7884 134.619 43.5791 135.173 43.1605C135.733 42.7481 136.013 42.0556 136.013 41.0831V38.4886H135.847C135.675 38.8826 135.416 39.255 135.072 39.6058C134.727 39.9567 134.284 40.2429 133.742 40.4645C133.201 40.6861 132.554 40.7969 131.803 40.7969C130.738 40.7969 129.769 40.5507 128.895 40.0582C128.027 39.5597 127.335 38.7995 126.817 37.7777C126.307 36.7498 126.051 35.451 126.051 33.8814C126.051 32.2749 126.313 30.933 126.836 29.8558C127.359 28.7786 128.055 27.9723 128.923 27.4368C129.797 26.9013 130.754 26.6335 131.794 26.6335C132.588 26.6335 133.253 26.7689 133.788 27.0398C134.324 27.3045 134.755 27.6368 135.081 28.0369C135.413 28.4309 135.669 28.8187 135.847 29.2003H135.995V26.8182H139.901V41.1385C139.901 42.3449 139.605 43.3544 139.014 44.1669C138.423 44.9794 137.605 45.5888 136.558 45.995C135.518 46.4074 134.321 46.6136 132.967 46.6136ZM133.05 37.8423C133.684 37.8423 134.219 37.6854 134.656 37.3714C135.099 37.0514 135.438 36.5959 135.672 36.005C135.912 35.4079 136.032 34.6939 136.032 33.8629C136.032 33.032 135.915 32.3118 135.681 31.7024C135.447 31.0869 135.109 30.6098 134.665 30.2713C134.222 29.9328 133.684 29.7635 133.05 29.7635C132.403 29.7635 131.859 29.9389 131.415 30.2898C130.972 30.6345 130.637 31.1146 130.409 31.7301C130.181 32.3456 130.067 33.0566 130.067 33.8629C130.067 34.6816 130.181 35.3894 130.409 35.9865C130.643 36.5774 130.978 37.036 131.415 37.3622C131.859 37.6823 132.403 37.8423 133.05 37.8423ZM152.125 34.9616V26.8182H156.058V41H152.282V38.424H152.134C151.814 39.255 151.282 39.9228 150.537 40.4276C149.798 40.9323 148.897 41.1847 147.832 41.1847C146.884 41.1847 146.05 40.9692 145.33 40.5384C144.609 40.1075 144.046 39.495 143.64 38.701C143.24 37.907 143.037 36.956 143.031 35.848V26.8182H146.964V35.1463C146.97 35.9834 147.195 36.6451 147.638 37.1314C148.081 37.6177 148.675 37.8608 149.42 37.8608C149.894 37.8608 150.337 37.7531 150.749 37.5376C151.162 37.3161 151.494 36.9898 151.746 36.5589C152.005 36.1281 152.131 35.5956 152.125 34.9616ZM163.248 41.2678C162.344 41.2678 161.537 41.1108 160.829 40.7969C160.122 40.4768 159.561 40.0059 159.149 39.3842C158.743 38.7564 158.54 37.9747 158.54 37.0391C158.54 36.2512 158.684 35.5895 158.974 35.054C159.263 34.5185 159.657 34.0876 160.155 33.7614C160.654 33.4351 161.22 33.1889 161.854 33.0227C162.494 32.8565 163.165 32.7396 163.867 32.6719C164.692 32.5857 165.357 32.5057 165.861 32.4318C166.366 32.3518 166.732 32.2348 166.96 32.081C167.188 31.9271 167.302 31.6993 167.302 31.3977V31.3423C167.302 30.7576 167.117 30.3052 166.748 29.9851C166.385 29.665 165.867 29.505 165.197 29.505C164.489 29.505 163.925 29.6619 163.507 29.9759C163.088 30.2836 162.811 30.6714 162.676 31.1392L159.038 30.8438C159.223 29.982 159.586 29.2372 160.128 28.6094C160.669 27.9754 161.368 27.4891 162.224 27.1506C163.085 26.8059 164.082 26.6335 165.215 26.6335C166.003 26.6335 166.757 26.7259 167.477 26.9105C168.203 27.0952 168.847 27.3814 169.407 27.7692C169.973 28.157 170.419 28.6555 170.746 29.2649C171.072 29.8681 171.235 30.5914 171.235 31.4347V41H167.505V39.0334H167.394C167.166 39.4766 166.862 39.8674 166.48 40.206C166.098 40.5384 165.64 40.8 165.104 40.9908C164.569 41.1754 163.95 41.2678 163.248 41.2678ZM164.375 38.5533C164.953 38.5533 165.464 38.4394 165.907 38.2116C166.351 37.9777 166.698 37.6638 166.951 37.2699C167.203 36.8759 167.329 36.4297 167.329 35.9311V34.4261C167.206 34.5062 167.037 34.58 166.822 34.6477C166.612 34.7093 166.375 34.7678 166.111 34.8232C165.846 34.8724 165.581 34.9186 165.317 34.9616C165.052 34.9986 164.812 35.0324 164.596 35.0632C164.135 35.1309 163.732 35.2386 163.387 35.3864C163.042 35.5341 162.774 35.7341 162.584 35.9865C162.393 36.2327 162.297 36.5405 162.297 36.9098C162.297 37.4453 162.491 37.8546 162.879 38.1378C163.273 38.4148 163.772 38.5533 164.375 38.5533ZM180.676 46.6136C179.401 46.6136 178.309 46.4382 177.398 46.0874C176.493 45.7427 175.773 45.2718 175.237 44.6747C174.702 44.0777 174.354 43.4067 174.194 42.6619L177.832 42.1726C177.943 42.4557 178.118 42.7204 178.358 42.9666C178.598 43.2128 178.915 43.4098 179.309 43.5575C179.709 43.7114 180.195 43.7884 180.768 43.7884C181.624 43.7884 182.328 43.5791 182.882 43.1605C183.442 42.7481 183.722 42.0556 183.722 41.0831V38.4886H183.556C183.384 38.8826 183.125 39.255 182.781 39.6058C182.436 39.9567 181.993 40.2429 181.451 40.4645C180.91 40.6861 180.263 40.7969 179.512 40.7969C178.447 40.7969 177.478 40.5507 176.604 40.0582C175.736 39.5597 175.044 38.7995 174.526 37.7777C174.016 36.7498 173.76 35.451 173.76 33.8814C173.76 32.2749 174.022 30.933 174.545 29.8558C175.068 28.7786 175.764 27.9723 176.632 27.4368C177.506 26.9013 178.463 26.6335 179.503 26.6335C180.297 26.6335 180.962 26.7689 181.497 27.0398C182.033 27.3045 182.464 27.6368 182.79 28.0369C183.122 28.4309 183.378 28.8187 183.556 29.2003H183.704V26.8182H187.61V41.1385C187.61 42.3449 187.314 43.3544 186.723 44.1669C186.132 44.9794 185.314 45.5888 184.267 45.995C183.227 46.4074 182.03 46.6136 180.676 46.6136ZM180.759 37.8423C181.393 37.8423 181.928 37.6854 182.365 37.3714C182.808 37.0514 183.147 36.5959 183.381 36.005C183.621 35.4079 183.741 34.6939 183.741 33.8629C183.741 33.032 183.624 32.3118 183.39 31.7024C183.156 31.0869 182.818 30.6098 182.374 30.2713C181.931 29.9328 181.393 29.7635 180.759 29.7635C180.112 29.7635 179.568 29.9389 179.124 30.2898C178.681 30.6345 178.346 31.1146 178.118 31.7301C177.89 32.3456 177.776 33.0566 177.776 33.8629C177.776 34.6816 177.89 35.3894 178.118 35.9865C178.352 36.5774 178.687 37.036 179.124 37.3622C179.568 37.6823 180.112 37.8423 180.759 37.8423ZM197.203 41.277C195.744 41.277 194.488 40.9815 193.436 40.3906C192.389 39.7936 191.583 38.9503 191.017 37.8608C190.45 36.7652 190.167 35.4695 190.167 33.9737C190.167 32.5149 190.45 31.2346 191.017 30.1328C191.583 29.031 192.38 28.1723 193.408 27.5568C194.442 26.9413 195.655 26.6335 197.046 26.6335C197.981 26.6335 198.852 26.7843 199.659 27.0859C200.471 27.3814 201.179 27.8277 201.782 28.4247C202.392 29.0218 202.865 29.7727 203.204 30.6776C203.543 31.5762 203.712 32.6288 203.712 33.8352V34.9155H191.737V32.478H200.009C200.009 31.9117 199.886 31.41 199.64 30.973C199.394 30.536 199.052 30.1944 198.615 29.9482C198.184 29.6958 197.683 29.5696 197.11 29.5696C196.513 29.5696 195.984 29.7081 195.522 29.9851C195.067 30.2559 194.71 30.6222 194.451 31.0838C194.193 31.5393 194.06 32.0471 194.054 32.6072V34.9247C194.054 35.6264 194.183 36.2327 194.442 36.7436C194.707 37.2545 195.079 37.6484 195.559 37.9254C196.039 38.2024 196.609 38.3409 197.267 38.3409C197.704 38.3409 198.104 38.2794 198.468 38.1562C198.831 38.0331 199.142 37.8485 199.4 37.6023C199.659 37.3561 199.856 37.0545 199.991 36.6974L203.629 36.9375C203.444 37.8116 203.066 38.5748 202.493 39.2273C201.927 39.8736 201.194 40.3783 200.296 40.7415C199.403 41.0985 198.372 41.277 197.203 41.277ZM218.078 30.8622L214.477 31.0838C214.416 30.776 214.284 30.4991 214.08 30.2528C213.877 30.0005 213.61 29.8004 213.277 29.6527C212.951 29.4988 212.56 29.4219 212.105 29.4219C211.495 29.4219 210.981 29.5511 210.563 29.8097C210.144 30.062 209.935 30.4006 209.935 30.8253C209.935 31.1638 210.07 31.45 210.341 31.6839C210.612 31.9179 211.077 32.1056 211.735 32.2472L214.302 32.7642C215.681 33.0473 216.709 33.5028 217.386 34.1307C218.063 34.7585 218.401 35.5833 218.401 36.6051C218.401 37.5346 218.128 38.3501 217.58 39.0518C217.038 39.7536 216.293 40.3014 215.345 40.6953C214.404 41.0831 213.317 41.277 212.086 41.277C210.209 41.277 208.713 40.8861 207.599 40.1044C206.491 39.3165 205.842 38.2455 205.651 36.8913L209.519 36.6882C209.636 37.2607 209.919 37.6977 210.369 37.9993C210.818 38.2947 211.394 38.4425 212.095 38.4425C212.785 38.4425 213.339 38.3101 213.757 38.0455C214.182 37.7746 214.397 37.4268 214.404 37.0021C214.397 36.6451 214.247 36.3527 213.951 36.125C213.656 35.8911 213.2 35.7126 212.585 35.5895L210.129 35.1001C208.744 34.8232 207.713 34.343 207.036 33.6598C206.365 32.9766 206.029 32.1056 206.029 31.0469C206.029 30.1359 206.276 29.3511 206.768 28.6925C207.267 28.0339 207.965 27.526 208.864 27.169C209.769 26.812 210.827 26.6335 212.04 26.6335C213.831 26.6335 215.241 27.0121 216.269 27.7692C217.303 28.5263 217.906 29.5573 218.078 30.8622ZM223.177 41.2401C222.568 41.2401 222.045 41.0246 221.608 40.5938C221.177 40.1567 220.961 39.6335 220.961 39.0241C220.961 38.4209 221.177 37.9039 221.608 37.473C222.045 37.0421 222.568 36.8267 223.177 36.8267C223.768 36.8267 224.285 37.0421 224.728 37.473C225.172 37.9039 225.393 38.4209 225.393 39.0241C225.393 39.4304 225.288 39.8028 225.079 40.1413C224.876 40.4737 224.608 40.7415 224.276 40.9446C223.944 41.1416 223.577 41.2401 223.177 41.2401ZM223.177 31.3054C222.568 31.3054 222.045 31.09 221.608 30.6591C221.177 30.2282 220.961 29.705 220.961 29.0895C220.961 28.4863 221.177 27.9723 221.608 27.5476C222.045 27.1167 222.568 26.9013 223.177 26.9013C223.768 26.9013 224.285 27.1167 224.728 27.5476C225.172 27.9723 225.393 28.4863 225.393 29.0895C225.393 29.5019 225.288 29.8774 225.079 30.2159C224.876 30.5483 224.608 30.813 224.276 31.0099C223.944 31.2069 223.577 31.3054 223.177 31.3054Z" fill="white"/>
</svg>
