<svg width="63" height="63" viewBox="0 0 63 63" fill="none" xmlns="http://www.w3.org/2000/svg">
<path d="M55.5 0H7.5C3.36 0 0 3.36 0 7.5V55.5C0 59.64 3.36 63 7.5 63H55.5C59.64 63 63 59.64 63 55.5V7.5C63 3.36 59.64 0 55.5 0ZM19.5 24V52.5H10.5V24H19.5ZM10.5 15.705C10.5 13.605 12.3 12 15 12C17.7 12 19.395 13.605 19.5 15.705C19.5 17.805 17.82 19.5 15 19.5C12.3 19.5 10.5 17.805 10.5 15.705ZM52.5 52.5H43.5C43.5 52.5 43.5 38.61 43.5 37.5C43.5 34.5 42 31.5 38.25 31.44H38.13C34.5 31.44 33 34.53 33 37.5C33 38.865 33 52.5 33 52.5H24V24H33V27.84C33 27.84 35.895 24 41.715 24C47.67 24 52.5 28.095 52.5 36.39V52.5Z" fill="#79A3FC"/>
</svg>
