<svg width="800" height="65" viewBox="0 0 800 65" fill="none" xmlns="http://www.w3.org/2000/svg">
<rect width="800" height="65" rx="14" fill="#051F39"/>
<path d="M79.9943 26.1861V22.6364H96.7188V26.1861H90.4844V43H86.2287V26.1861H79.9943ZM104.079 43.2983C102.535 43.2983 101.199 42.9702 100.072 42.3139C98.9518 41.651 98.0868 40.7296 97.4769 39.5497C96.8671 38.3632 96.5621 36.9877 96.5621 35.4233C96.5621 33.8456 96.8671 32.4669 97.4769 31.2869C98.0868 30.1004 98.9518 29.179 100.072 28.5227C101.199 27.8598 102.535 27.5284 104.079 27.5284C105.624 27.5284 106.956 27.8598 108.076 28.5227C109.203 29.179 110.072 30.1004 110.681 31.2869C111.291 32.4669 111.596 33.8456 111.596 35.4233C111.596 36.9877 111.291 38.3632 110.681 39.5497C110.072 40.7296 109.203 41.651 108.076 42.3139C106.956 42.9702 105.624 43.2983 104.079 43.2983ZM104.099 40.017C104.802 40.017 105.388 39.8182 105.859 39.4205C106.33 39.0161 106.684 38.4659 106.923 37.7699C107.168 37.0739 107.291 36.2817 107.291 35.3935C107.291 34.5052 107.168 33.7131 106.923 33.017C106.684 32.321 106.33 31.7708 105.859 31.3665C105.388 30.9621 104.802 30.7599 104.099 30.7599C103.39 30.7599 102.793 30.9621 102.309 31.3665C101.832 31.7708 101.471 32.321 101.225 33.017C100.987 33.7131 100.868 34.5052 100.868 35.3935C100.868 36.2817 100.987 37.0739 101.225 37.7699C101.471 38.4659 101.832 39.0161 102.309 39.4205C102.793 39.8182 103.39 40.017 104.099 40.017ZM121.251 43.2983C119.707 43.2983 118.371 42.9702 117.244 42.3139C116.124 41.651 115.259 40.7296 114.649 39.5497C114.039 38.3632 113.734 36.9877 113.734 35.4233C113.734 33.8456 114.039 32.4669 114.649 31.2869C115.259 30.1004 116.124 29.179 117.244 28.5227C118.371 27.8598 119.707 27.5284 121.251 27.5284C122.796 27.5284 124.128 27.8598 125.248 28.5227C126.375 29.179 127.243 30.1004 127.853 31.2869C128.463 32.4669 128.768 33.8456 128.768 35.4233C128.768 36.9877 128.463 38.3632 127.853 39.5497C127.243 40.7296 126.375 41.651 125.248 42.3139C124.128 42.9702 122.796 43.2983 121.251 43.2983ZM121.271 40.017C121.974 40.017 122.56 39.8182 123.031 39.4205C123.502 39.0161 123.856 38.4659 124.095 37.7699C124.34 37.0739 124.463 36.2817 124.463 35.3935C124.463 34.5052 124.34 33.7131 124.095 33.017C123.856 32.321 123.502 31.7708 123.031 31.3665C122.56 30.9621 121.974 30.7599 121.271 30.7599C120.562 30.7599 119.965 30.9621 119.481 31.3665C119.004 31.7708 118.643 32.321 118.397 33.017C118.159 33.7131 118.039 34.5052 118.039 35.3935C118.039 36.2817 118.159 37.0739 118.397 37.7699C118.643 38.4659 119.004 39.0161 119.481 39.4205C119.965 39.8182 120.562 40.017 121.271 40.017ZM135.758 22.6364V43H131.522V22.6364H135.758ZM151.859 32.0824L147.981 32.321C147.915 31.9896 147.772 31.6913 147.553 31.4261C147.335 31.1544 147.046 30.9389 146.688 30.7798C146.337 30.6141 145.916 30.5312 145.425 30.5312C144.769 30.5312 144.216 30.6705 143.765 30.9489C143.314 31.2206 143.089 31.5852 143.089 32.0426C143.089 32.4072 143.235 32.7154 143.526 32.9673C143.818 33.2192 144.318 33.4214 145.028 33.5739L147.792 34.1307C149.277 34.4356 150.384 34.9261 151.113 35.6023C151.842 36.2784 152.207 37.1667 152.207 38.267C152.207 39.268 151.912 40.1463 151.322 40.902C150.738 41.6577 149.936 42.2476 148.915 42.6719C147.901 43.0895 146.731 43.2983 145.406 43.2983C143.384 43.2983 141.773 42.8774 140.573 42.0355C139.38 41.187 138.681 40.0336 138.475 38.5753L142.641 38.3565C142.767 38.973 143.072 39.4437 143.556 39.7685C144.04 40.0866 144.66 40.2457 145.415 40.2457C146.158 40.2457 146.754 40.1032 147.205 39.8182C147.663 39.5265 147.895 39.152 147.901 38.6946C147.895 38.3101 147.732 37.9953 147.414 37.75C147.096 37.4981 146.605 37.3059 145.942 37.1733L143.298 36.6463C141.806 36.348 140.696 35.831 139.967 35.0952C139.244 34.3594 138.883 33.4214 138.883 32.2812C138.883 31.3002 139.148 30.455 139.678 29.7457C140.215 29.0365 140.968 28.4896 141.935 28.1051C142.91 27.7206 144.05 27.5284 145.356 27.5284C147.285 27.5284 148.803 27.9361 149.91 28.7514C151.023 29.5668 151.673 30.6771 151.859 32.0824ZM157.35 43.2585C156.694 43.2585 156.13 43.0265 155.659 42.5625C155.195 42.0919 154.963 41.5284 154.963 40.8722C154.963 40.2225 155.195 39.6657 155.659 39.2017C156.13 38.7377 156.694 38.5057 157.35 38.5057C157.986 38.5057 158.543 38.7377 159.02 39.2017C159.498 39.6657 159.736 40.2225 159.736 40.8722C159.736 41.3097 159.623 41.7107 159.398 42.0753C159.179 42.4332 158.891 42.7216 158.533 42.9403C158.175 43.1525 157.781 43.2585 157.35 43.2585ZM157.35 32.5597C156.694 32.5597 156.13 32.3277 155.659 31.8636C155.195 31.3996 154.963 30.8362 154.963 30.1733C154.963 29.5237 155.195 28.9702 155.659 28.5128C156.13 28.0488 156.694 27.8168 157.35 27.8168C157.986 27.8168 158.543 28.0488 159.02 28.5128C159.498 28.9702 159.736 29.5237 159.736 30.1733C159.736 30.6174 159.623 31.0218 159.398 31.3864C159.179 31.7443 158.891 32.0294 158.533 32.2415C158.175 32.4536 157.781 32.5597 157.35 32.5597Z" fill="white"/>
<path d="M56.1107 49.3958L45.3156 38.6821L48.0749 35.9313L58.87 46.6932C59.2573 47.0793 59.4509 47.5297 59.4509 48.0445C59.4509 48.5593 59.2573 49.0097 58.87 49.3958C58.4827 49.7819 58.0229 49.9749 57.4904 49.9749C56.9579 49.9749 56.498 49.7819 56.1107 49.3958ZM27.9852 49.3958C27.5979 49.0097 27.4043 48.5512 27.4043 48.0204C27.4043 47.4895 27.5979 47.0311 27.9852 46.645L40.6199 34.0492L35.4402 28.8854L35.3433 28.9819C35.0529 29.2714 34.714 29.4162 34.3268 29.4162C33.9395 29.4162 33.6006 29.2714 33.3102 28.9819L32.1968 27.8719V32.5531C32.1968 32.8748 32.0435 33.092 31.7369 33.2046C31.4303 33.3172 31.1641 33.2609 30.9381 33.0357L25.2259 27.3411C25 27.1158 24.9435 26.8504 25.0565 26.5448C25.1694 26.2391 25.3873 26.0863 25.71 26.0863H30.4541L29.147 24.7833C28.8566 24.4937 28.7113 24.1559 28.7113 23.7698C28.7113 23.3838 28.8566 23.0459 29.147 22.7564L34.472 17.4478C35.0206 16.9008 35.6177 16.5309 36.2631 16.3378C36.9086 16.1448 37.6186 16.0483 38.3931 16.0483C39.0708 16.0483 39.6517 16.1367 40.1358 16.3137C40.6199 16.4906 41.1363 16.7882 41.6849 17.2065C41.8463 17.3674 41.935 17.5443 41.9511 17.7374C41.9673 17.9304 41.8947 18.1073 41.7333 18.2682L37.1345 22.8529L38.4415 24.1559C38.732 24.4455 38.8772 24.7833 38.8772 25.1694C38.8772 25.5554 38.732 25.8933 38.4415 26.1828L38.2963 26.3276L43.3308 31.3466L49.2367 25.4589C48.9785 25.0407 48.7768 24.5581 48.6316 24.0111C48.4863 23.4642 48.4137 22.8851 48.4137 22.2738C48.4137 20.5686 49.035 19.0967 50.2775 17.858C51.5199 16.6193 52.9964 16 54.7069 16C54.965 16 55.199 16.008 55.4088 16.0241C55.6186 16.0402 55.8041 16.0804 55.9655 16.1448C56.1591 16.2413 56.2801 16.3941 56.3286 16.6032C56.377 16.8124 56.3205 16.9974 56.1591 17.1582L53.2062 20.1021C53.0448 20.2629 52.9641 20.4399 52.9641 20.6329C52.9641 20.826 53.0448 21.0029 53.2062 21.1638L55.7719 23.7216C55.9332 23.8824 56.1107 23.9629 56.3043 23.9629C56.498 23.9629 56.6755 23.8824 56.8368 23.7216L59.693 20.8742C59.8543 20.7134 60.0641 20.649 60.3223 20.6812C60.5805 20.7134 60.758 20.8421 60.8548 21.0673C60.9193 21.2603 60.9597 21.4614 60.9758 21.6705C60.9919 21.8797 61 22.1129 61 22.3703C61 24.0755 60.3788 25.5474 59.1363 26.7861C57.8938 28.0247 56.4173 28.6441 54.7069 28.6441C54.126 28.6441 53.6257 28.6039 53.2062 28.5234C52.7866 28.443 52.3994 28.3223 52.0444 28.1615L30.6961 49.444C30.3088 49.8301 29.857 50.0151 29.3407 49.999C28.8243 49.9829 28.3725 49.7819 27.9852 49.3958Z" fill="#E8EAED"/>
</svg>
