<svg width="64" height="64" viewBox="0 0 64 64" fill="none" xmlns="http://www.w3.org/2000/svg">
<path fill-rule="evenodd" clip-rule="evenodd" d="M0.721274 31.6394C0.721274 14.1937 14.915 0 32.3606 0C49.8063 0 64 14.1937 64 31.6394C64 49.0852 49.8063 63.2789 32.3606 63.2789C27.147 63.2789 21.9925 61.983 17.4158 59.5262L2.42705 63.239C2.31837 63.2651 2.20695 63.2789 2.0969 63.2789C1.72961 63.2789 1.37194 63.1317 1.1092 62.8607C0.768045 62.5099 0.640112 62.0037 0.772172 61.5318L4.79725 47.1703C2.12854 42.4436 0.721274 37.0869 0.721274 31.6394ZM52.0606 47.4146C51.0888 49.7988 46.8802 51.8149 44.8949 52.0174C43.1127 52.1976 40.8685 52.2038 38.4488 51.2949C36.9824 50.7424 35.1011 50.0129 32.7035 48.8249C23.2956 44.1636 17.2511 34.4339 16.097 32.5763C16.0148 32.4439 15.9574 32.3515 15.9254 32.3037L15.9163 32.2902C15.4044 31.5244 12.0071 26.4422 12.2514 21.3643C12.4816 16.5804 14.9264 14.1849 16.0511 13.0828C16.1275 13.008 16.1978 12.9391 16.2609 12.8758C17.2531 11.8812 18.3762 11.6746 19.0611 11.7076C19.1295 11.7144 19.224 11.7192 19.3389 11.7251C20.2805 11.7732 22.596 11.8916 23.251 13.7333C23.5052 14.4473 23.8786 15.5111 24.2708 16.6286C25.0438 18.8308 25.89 21.2418 26.0417 21.596C26.2739 22.1283 26.415 22.7438 26.041 23.4201C25.9859 23.5198 25.9347 23.614 25.8858 23.7041C25.603 24.225 25.3957 24.6068 24.9321 25.1034C24.749 25.2996 24.5595 25.5113 24.3703 25.7228C23.9978 26.1391 23.626 26.5545 23.3046 26.8492C22.7651 27.3426 22.2045 27.8778 22.7524 28.9465C23.3003 30.0153 25.1964 33.5138 28.1161 36.4136C31.2513 39.5286 34.0408 40.9171 35.4555 41.6213C35.7326 41.7592 35.9569 41.8709 36.1208 41.9642C37.1213 42.5335 37.7251 42.4751 38.3564 41.8111C38.9877 41.1454 41.0678 38.902 41.8008 37.8967C42.5339 36.8915 43.2105 37.0954 44.1359 37.4879C45.0613 37.8787 49.9863 40.6324 50.9868 41.2017C51.1833 41.3135 51.3671 41.4146 51.5375 41.5084C52.2345 41.8919 52.706 42.1513 52.896 42.509C53.1325 42.9523 53.0324 45.0322 52.0606 47.4146Z" fill="#79A3FC"/>
</svg>
